<svg width="708" height="147" viewBox="0 0 708 147" fill="none" xmlns="http://www.w3.org/2000/svg">
<path d="M79.8264 108.276H48.5428C46.7366 108.276 45.0406 107.571 43.763 106.293L21.6426 84.1642C20.365 82.8861 19.6602 81.1894 19.6602 79.3825V48.0868C19.6602 46.2799 20.365 44.5831 21.6426 43.3051L43.763 21.1761C45.0406 19.898 46.7366 19.1929 48.5428 19.1929H79.8264C81.6326 19.1929 83.3287 19.898 84.6062 21.1761L106.727 43.3051C108.004 44.5831 108.709 46.2799 108.709 48.0868V79.3825C108.709 81.1894 108.004 82.8861 106.727 84.1642L84.6062 106.293C83.3287 107.571 81.6326 108.276 79.8264 108.276ZM48.5428 23.3025C47.8325 23.3025 47.1661 23.5779 46.665 24.0792L24.5446 46.2082C24.0435 46.7095 23.7682 47.3761 23.7682 48.0868V79.3825C23.7682 80.0931 24.0435 80.7597 24.5446 81.261L46.665 103.39C47.1661 103.891 47.8325 104.167 48.5428 104.167H79.8264C80.5368 104.167 81.2031 103.891 81.7042 103.39L103.825 81.261C104.326 80.7597 104.601 80.0931 104.601 79.3825V48.0868C104.601 47.3761 104.326 46.7095 103.825 46.2082L81.7042 24.0792C81.2031 23.5779 80.5368 23.3025 79.8264 23.3025H48.5428Z" fill="#F4EFE5"/>
<path d="M86.3011 128.406H42.0492C39.1747 128.406 36.4709 127.287 34.4389 125.249L3.14983 93.9478C1.11786 91.915 0 89.2102 0 86.3346V42.0655C0 39.1899 1.11786 36.4851 3.14983 34.4523L34.4389 3.15106C36.4709 1.11829 39.1747 0 42.0492 0H86.3011C89.1756 0 91.8793 1.11829 93.9113 3.15106L125.2 34.4523C127.232 36.4851 128.35 39.1899 128.35 42.0655V86.3346C128.35 89.2102 127.232 91.915 125.2 93.9478L93.9113 125.249C91.8793 127.282 89.1756 128.4 86.3011 128.4V128.406ZM42.0492 8.20818C41.3664 8.20818 40.7221 8.4726 40.243 8.95738L8.9539 40.2586C8.46931 40.7434 8.20499 41.3824 8.20499 42.0655V86.3346C8.20499 87.0177 8.46931 87.6622 8.9539 88.1415L40.243 119.443C40.7276 119.928 41.3664 120.192 42.0492 120.192H86.3011C86.9839 120.192 87.6282 119.928 88.1073 119.443L119.396 88.1415C119.881 87.6567 120.145 87.0177 120.145 86.3346V42.0655C120.145 41.3824 119.881 40.7379 119.396 40.2586L88.1073 8.95738C87.6227 8.4726 86.9839 8.20818 86.3011 8.20818H42.0492Z" fill="#F4EFE5"/>
<g opacity="0.6">
<path d="M649 127.251V118.156H658.306V127.251H649Z" fill="#F4EFE5"/>
<path d="M673.962 127.246C669.969 127.246 666.781 126.353 664.402 124.563C662.023 122.772 660.828 120.255 660.828 117.005C660.828 113.754 661.825 111.226 663.824 109.413C665.817 107.601 668.912 106.295 673.097 105.497L686.302 103.023C686.302 100.103 685.603 97.9275 684.21 96.4897C682.816 95.0519 680.746 94.3357 678.004 94.3357C675.548 94.3357 673.626 94.8646 672.232 95.9223C670.839 96.98 669.876 98.55 669.347 100.621L661.483 100.126C662.205 96.3575 663.994 93.3937 666.858 91.2287C669.721 89.0638 673.433 87.9785 678.004 87.9785C683.196 87.9785 687.156 89.3337 689.87 92.0385C692.591 94.7489 693.945 98.55 693.945 103.442V118.062C693.945 118.955 694.1 119.583 694.414 119.935C694.727 120.288 695.245 120.464 695.966 120.464H697.338V126.948C697.095 126.992 696.71 127.042 696.181 127.091C695.652 127.135 695.102 127.163 694.524 127.163C692.888 127.163 691.478 126.904 690.306 126.386C689.127 125.868 688.252 125.009 687.673 123.808C687.095 122.607 686.809 120.442 686.809 118.42L687.602 118.773C687.216 120.42 686.385 121.88 685.113 123.152C683.835 124.425 682.227 125.422 680.278 126.155C678.328 126.887 676.225 127.251 673.962 127.251V127.246ZM675.19 121.318C677.497 121.318 679.468 120.883 681.104 120.012C682.739 119.142 684.011 117.93 684.931 116.377C685.845 114.823 686.302 113.055 686.302 111.077V108.675L675.046 110.796C672.739 111.22 671.115 111.892 670.173 112.807C669.231 113.721 668.769 114.889 668.769 116.305C668.769 117.908 669.336 119.142 670.465 120.012C671.594 120.883 673.169 121.318 675.19 121.318Z" fill="#F4EFE5"/>
<path d="M699.723 83.2905V75.6387H707.663V83.2905H699.723ZM699.866 127.251V88.8489H707.515V127.251H699.866Z" fill="#F4EFE5"/>
</g>
<path d="M195.75 128.584C187.086 128.584 179.647 126.713 173.426 122.972C167.2 119.231 162.412 113.871 159.05 106.891C155.683 99.9116 154 91.5906 154 81.9174C154 72.2443 155.683 63.9019 159.045 56.8795C162.407 49.8624 167.2 44.454 173.421 40.6703C179.647 36.8919 187.086 35 195.75 35C204.413 35 211.996 36.8919 218.265 40.6756C224.528 44.4594 229.322 49.8624 232.641 56.8848C235.96 63.9072 237.622 72.2496 237.622 81.9228C237.622 91.5959 235.96 99.917 232.641 106.897C229.317 113.876 224.55 119.237 218.324 122.978C212.098 126.719 204.578 128.589 195.75 128.589V128.584ZM195.75 116.099C201.553 116.099 206.513 114.758 210.633 112.065C214.754 109.376 217.928 105.486 220.157 100.398C222.385 95.3102 223.497 89.1536 223.497 81.9228C223.497 74.692 222.401 68.514 220.216 63.3835C218.03 58.2583 214.855 54.3249 210.692 51.5886C206.529 48.8577 201.548 47.4896 195.744 47.4896C189.94 47.4896 185.104 48.8577 180.989 51.5886C176.868 54.3196 173.694 58.253 171.465 63.3835C169.237 68.514 168.125 74.692 168.125 81.9228C168.125 89.1536 169.215 95.3156 171.406 100.398C173.592 105.486 176.767 109.376 180.93 112.065C185.093 114.758 190.031 116.099 195.75 116.099Z" fill="#F4EFE5"/>
<path d="M275.581 128.081C269.189 128.081 263.599 126.649 258.805 123.795C254.011 120.936 250.313 116.858 247.705 111.562C245.097 106.266 243.793 100.083 243.793 93.0228C243.793 85.963 245.097 79.8011 247.705 74.5477C250.313 69.2942 254.011 65.2165 258.805 62.3146C263.599 59.4127 269.189 57.9644 275.581 57.9644C281.043 57.9644 285.901 58.9103 290.149 60.8022C294.393 62.694 297.845 65.4517 300.49 69.0644C303.141 72.6825 304.841 77.0969 305.6 82.3076L291.598 83.0664C290.924 78.6948 289.155 75.3546 286.301 73.0406C283.442 70.7265 279.867 69.5721 275.581 69.5721C269.948 69.5721 265.555 71.6511 262.402 75.8143C259.249 79.9774 257.672 85.7172 257.672 93.0282C257.672 100.339 259.249 106.084 262.402 110.242C265.555 114.405 269.948 116.484 275.581 116.484C279.867 116.484 283.442 115.287 286.301 112.888C289.161 110.493 290.924 106.854 291.598 101.98L305.6 102.739C304.841 107.869 303.141 112.326 300.49 116.11C297.84 119.894 294.393 122.839 290.149 124.939C285.901 127.039 281.048 128.092 275.581 128.092V128.081Z" fill="#F4EFE5"/>
<path d="M347.348 70.4435V59.4717H329.562V43.7061H316.191V59.4717H305.973V70.4435H316.191V108.409C316.191 114.635 317.703 119.215 320.734 122.155C323.758 125.099 328.467 126.569 334.859 126.569H347.343V115.597H337.755C334.981 115.597 332.919 115.009 331.577 113.834C330.23 112.658 329.557 110.515 329.557 107.399V70.4435H347.343H347.348Z" fill="#F4EFE5"/>
<path d="M372.317 128.081C365.337 128.081 359.769 126.483 355.605 123.287C351.442 120.092 349.363 115.592 349.363 109.793C349.363 103.995 351.106 99.4733 354.595 96.2347C358.085 93.0014 363.488 90.6659 370.805 89.2337L393.886 84.8193C393.886 79.6086 392.668 75.718 390.231 73.1527C387.789 70.5875 384.176 69.3048 379.382 69.3048C375.096 69.3048 371.729 70.2508 369.292 72.1427C366.85 74.0345 365.172 76.8296 364.247 80.5278L350.502 79.646C351.763 72.9229 354.895 67.6214 359.897 63.7521C364.899 59.8882 371.392 57.9482 379.382 57.9482C388.462 57.9482 395.378 60.3639 400.129 65.2004C404.88 70.037 407.253 76.8242 407.253 85.5675V111.674C407.253 113.272 407.525 114.384 408.07 115.014C408.615 115.645 409.519 115.96 410.78 115.96H413.174V126.553C412.752 126.638 412.078 126.718 411.154 126.804C410.229 126.889 409.262 126.932 408.252 126.932C405.393 126.932 402.934 126.473 400.871 125.543C398.809 124.618 397.275 123.084 396.27 120.941C395.26 118.798 394.758 115.918 394.758 112.3L396.147 112.93C395.474 115.875 394.02 118.478 391.797 120.749C389.568 123.02 386.752 124.805 383.348 126.109C379.943 127.413 376.261 128.065 372.312 128.065L372.317 128.081ZM374.46 117.484C378.495 117.484 381.942 116.709 384.801 115.148C387.66 113.593 389.889 111.428 391.487 108.655C393.085 105.881 393.881 102.728 393.881 99.1954V94.9093L374.204 98.693C370.169 99.4519 367.331 100.649 365.69 102.29C364.049 103.93 363.232 106.009 363.232 108.532C363.232 111.391 364.22 113.598 366.192 115.153C368.17 116.709 370.922 117.489 374.455 117.489L374.46 117.484Z" fill="#F4EFE5"/>
<path d="M444.719 147C439.423 147 434.758 146.198 430.717 144.606C426.682 143.008 423.358 140.758 420.756 137.856C418.147 134.954 416.384 131.571 415.459 127.702L429.333 126.82C430.258 129.594 431.877 131.801 434.191 133.442C436.5 135.082 440.011 135.9 444.725 135.9C450.272 135.9 454.542 134.719 457.529 132.367C460.512 130.011 462.008 126.441 462.008 121.647V111.936C460.41 115.383 457.845 118.114 454.312 120.134C450.78 122.154 446.83 123.159 442.459 123.159C436.826 123.159 431.824 121.77 427.452 118.996C423.08 116.222 419.676 112.396 417.234 107.516C414.791 102.642 413.578 97.0042 413.578 90.6178C413.578 84.2314 414.775 78.4703 417.175 73.591C419.569 68.717 422.931 64.8905 427.265 62.1114C431.594 59.3378 436.489 57.9482 441.956 57.9482C446.75 57.9482 450.972 59.0438 454.633 61.2296C458.288 63.4154 460.918 66.3601 462.516 70.0584V59.466H475.379V121.267C475.379 126.815 474.14 131.502 471.66 135.328C469.18 139.155 465.647 142.051 461.067 144.029C456.482 146.006 451.042 146.995 444.735 146.995L444.719 147ZM444.591 111.808C449.802 111.808 453.986 109.916 457.139 106.132C460.292 102.349 461.912 97.1379 461.997 90.4949C462.083 86.1233 461.409 82.3609 459.977 79.2078C458.545 76.0547 456.509 73.6177 453.858 71.8915C451.207 70.1706 448.118 69.3048 444.586 69.3048C439.118 69.3048 434.896 71.2181 431.909 75.0446C428.922 78.8711 427.431 84.023 427.431 90.4949C427.431 96.9668 428.964 102.247 432.032 106.073C435.1 109.9 439.284 111.813 444.58 111.813L444.591 111.808Z" fill="#F4EFE5"/>
<path d="M489.364 145.487V134.516H497.562C499.833 134.516 501.512 134.179 502.607 133.506C503.697 132.832 504.542 131.694 505.13 130.101L507.273 124.554H503.109L478.895 59.4712H493.019L511.436 112.193L528.965 59.4712H543.218L516.481 134.387C515.134 138.257 513.141 141.073 510.49 142.837C507.839 144.6 504.162 145.487 499.454 145.487H489.364Z" fill="#F4EFE5"/>
<path d="M546.249 126.569V59.4665H558.482L558.861 76.114L557.349 75.6116C558.108 71.9134 559.428 68.7602 561.32 66.1522C563.212 63.5442 565.547 61.5294 568.321 60.0972C571.095 58.6702 574.125 57.9541 577.401 57.9541C583.119 57.9541 587.785 59.5734 591.403 62.8121C595.016 66.0507 597.287 70.4864 598.211 76.1193H596.068C596.827 72.1699 598.105 68.8671 599.916 66.2164C601.723 63.5656 604.058 61.5294 606.917 60.0972C609.776 58.6702 613.015 57.9541 616.628 57.9541C621.336 57.9541 625.35 58.9428 628.674 60.9202C631.993 62.8976 634.515 65.7781 636.241 69.5619C637.962 73.3456 638.828 77.9684 638.828 83.4356V126.569H625.457V86.7117C625.457 80.9078 624.404 76.5362 622.303 73.5968C620.203 70.6575 617.007 69.1824 612.716 69.1824C609.942 69.1824 607.5 69.8986 605.399 71.3255C603.299 72.7578 601.68 74.8153 600.542 77.5035C599.409 80.197 598.837 83.4303 598.837 87.214V126.564H586.096V87.214C586.096 81.4957 585.15 77.0599 583.258 73.9068C581.366 70.7537 578.149 69.1771 573.612 69.1771C570.752 69.1771 568.294 69.8932 566.231 71.3201C564.168 72.7524 562.554 74.8313 561.373 77.5623C560.192 80.2932 559.61 83.5105 559.61 87.2087V126.559H546.238L546.249 126.569Z" fill="#F4EFE5"/>
</svg>
